<?xml version="1.0" encoding="utf-8" ?>
<svg baseProfile="full" height="200mm" version="1.1" viewBox="0,0,200,200" width="200mm" xmlns="http://www.w3.org/2000/svg" xmlns:ev="http://www.w3.org/2001/xml-events" xmlns:xlink="http://www.w3.org/1999/xlink"><defs /><rect fill="#1a1a1a" height="200" width="200" x="0" y="0" /><text alignment-baseline="middle" fill="#e1ed5e" style="dominant-baseline: central; font-size:9.0px; font-family:Arial;" text-anchor="middle" x="100.0" y="100.0">2021</text><line stroke="#e1ed5e" stroke-width="0.3" x1="100.0" x2="100.0" y1="15.0" y2="10.0" /><path d="M 100.0 14.0 a86.0,86.0 0 0,1 42.46469731375804,11.215312516191453" fill="none" id="id25" stroke="none" /><text fill="#e1ed5e" style="font-size:6.75px; font-family:Arial;" text-anchor="middle"><textPath startOffset="22.20632615414155" xlink:href="#id25">January</textPath></text><path d="M 110.36928655335952 81.73862282372117 l 19.23797878093253 -33.880053832058195 a59.96097887937072,59.96097887937072 0 0,0 0.8931423865735523,0.5173657186554772 l -19.81831789997141 33.54388395601267" fill="#95ff23" stroke="none" /><line stroke="#e1ed5e" stroke-width="0.3" x1="143.23703022742887" x2="145.7803849466894" y1="26.81831364943548" y2="22.513508569990506" /><path d="M 143.74570117128098 25.957352633546492 a86.0,86.0 0 0,1 28.547481713284135,27.462654790039103" fill="none" id="id26" stroke="none" /><text fill="#e1ed5e" style="font-size:6.75px; font-family:Arial;" text-anchor="middle"><textPath startOffset="19.985693538727396" xlink:href="#id26">February</textPath></text><path d="M 112.19680574252982 82.90503203632743 l 29.397665408113813 -41.20358714955096 a71.61579126555321,71.61579126555321 0 0,0 0.9973511227924032,0.7246180060625733 l -30.102561847260006 40.691449908671714" fill="#37ff7c" stroke="none" /><line stroke="#e1ed5e" stroke-width="0.3" x1="172.23445277983987" x2="176.4835382374775" y1="55.19839476539836" y2="52.563006222186495" /><path d="M 173.08426987136738 54.67131705675599 a86.0,86.0 0 0,1 12.851231095245387,41.99856678651699" fill="none" id="id27" stroke="none" /><text fill="#e1ed5e" style="font-size:6.75px; font-family:Arial;" text-anchor="middle"><textPath startOffset="22.20632615414155" xlink:href="#id27">March</textPath></text><path d="M 119.61058180528143 92.48833698450437 l 37.43202936935478 -14.338013701001135 a61.08410482470995,61.08410482470995 0 0,0 0.36765478882519387,0.985132047590673 l -37.6732887466816 13.691558516381129" fill="#84ff25" stroke="none" /><path d="M 120.37134235888165 94.90015583598534 l 39.69224487695791 -9.936716973594018 a61.91714368801545,61.91714368801545 0 0,0 0.2499306136324547,1.0361237478778673 l -39.85740829085118 9.252007994056745" fill="#77ff27" stroke="none" /><line stroke="#e1ed5e" stroke-width="0.3" x1="184.98032266829074" x2="189.97916517819016" y1="98.17113171792111" y2="98.06355123074" /><path d="M 185.9800911702706 98.14961562048488 a86.0,86.0 0 0,1 -9.607161424134198,41.387399972396054" fill="none" id="id28" stroke="none" /><text fill="#e1ed5e" style="font-size:6.75px; font-family:Arial;" text-anchor="middle"><textPath startOffset="21.466115282336823" xlink:href="#id28">April</textPath></text><path d="M 120.89721153311464 102.0752229133903 l 48.928236841403354 4.858877848088375 a70.16890332670746,70.16890332670746 0 0,0 -0.12970453968276038,1.2009029497585313 l -48.837350000219544 -5.700377119731698" fill="#35ff64" stroke="none" /><path d="M 120.23288151984713 105.62410040840565 l 36.567106494847415 10.164497744433906 a58.95352805474234,58.95352805474234 0 0,0 -0.2801902943526283,0.9753791721548157 l -36.38672356360869 -10.792434392093304" fill="#a4ff21" stroke="none" /><path d="M 119.26925614724726 108.34839909993367 l 35.2995301674078 15.293510223007113 a59.470095983516295,59.470095983516295 0 0,0 -0.41504155991767777,0.9358091498424996 l -35.031047522758854 -15.898867709342301" fill="#9cff22" stroke="none" /><line stroke="#e1ed5e" stroke-width="0.3" x1="174.80103733775053" x2="179.2010983576182" y1="140.37084112569926" y2="142.7455964860345" /><path d="M 175.68104954172406 140.8457921977663 a86.0,86.0 0 0,1 -30.038265399797805,32.042727171017184" fill="none" id="id29" stroke="none" /><text fill="#e1ed5e" style="font-size:6.75px; font-family:Arial;" text-anchor="middle"><textPath startOffset="22.206326154141568" xlink:href="#id29">May</textPath></text><path d="M 118.48025628344425 109.97397251340804 l 55.107909642277804 29.742270216017445 a83.62175614548073,83.62175614548073 0 0,0 -0.6945527121364307,1.2608149190004154 l -54.58778052068986 -30.686455653415667" fill="#4cd7ff" stroke="none" /><path d="M 117.94076556474637 110.91462005526583 l 53.8222966942391 32.74386016579747 a84.0,84.0 0 0,0 -0.7621414413281484,1.228814674538906 l -53.25069061324299 -33.665471171701654" fill="#4dd2ff" stroke="none" /><path d="M 117.55443506779139 111.5257021239791 l 32.56382033618278 21.3804028306356 a59.955410665110975,59.955410665110975 0 0,0 -0.57385006464344,0.8578279856427296 l -32.19096716612862 -21.937767730484136" fill="#95ff23" stroke="none" /><path d="M 116.93607887273984 112.41649034213515 l 40.163720954732504 29.445567482644275 a70.80126429423832,70.80126429423832 0 0,0 -0.7290464622558144,0.9766768752618025 l -39.6509132257816 -30.13255723741539" fill="#36ff6f" stroke="none" /><line stroke="#e1ed5e" stroke-width="0.3" x1="143.8653032363475" x2="146.44561519142675" y1="172.8068346515853" y2="177.08958963109032" /><path d="M 144.38136562736335 173.6633856474863 a86.0,86.0 0 0,1 -40.68145358897372,12.25698825130547" fill="none" id="id30" stroke="none" /><text fill="#e1ed5e" style="font-size:6.75px; font-family:Arial;" text-anchor="middle"><textPath startOffset="21.466115282336833" xlink:href="#id30">June</textPath></text><path d="M 104.13013068566511 120.58985236759428 l 3.7000813006951896 18.445936346234923 a39.813377403355965,39.813377403355965 0 0,0 -0.6730970643557367,0.12900065436829194 l -3.3820166217677485 -18.506894198951684" fill="#ff0000" stroke="none" /><line stroke="#e1ed5e" stroke-width="0.3" x1="102.19456741930631" x2="102.32365962044197" y1="184.97166512339345" y2="189.96999836594603" /><path d="M 102.22038585953345 185.97133177190398 a86.0,86.0 0 0,1 -42.740103519485714,-10.115201625700543" fill="none" id="id31" stroke="none" /><text fill="#e1ed5e" style="font-size:6.75px; font-family:Arial;" text-anchor="middle"><textPath startOffset="22.20632615414155" xlink:href="#id31">July</textPath></text><line stroke="#e1ed5e" stroke-width="0.3" x1="58.666819895761336" x2="56.23545636021788" y1="174.27360380694188" y2="178.64263932499728" /><path d="M 58.180547188652646 175.14741091055294 a86.0,86.0 0 0,1 -31.652253787137756,-30.449443065178592" fill="none" id="id32" stroke="none" /><text fill="#e1ed5e" style="font-size:6.75px; font-family:Arial;" text-anchor="middle"><textPath startOffset="22.20632615414155" xlink:href="#id32">August</textPath></text><path d="M 84.67929136418377 114.36230785411682 l -23.053005001737535 21.61090342932495 a52.59861051758043,52.59861051758043 0 0,0 -0.6135342181292837,-0.6658702192995991 l 23.421585627862548 -21.210881955224007" fill="#fff116" stroke="none" /><line stroke="#e1ed5e" stroke-width="0.3" x1="26.63291911575756" x2="22.317208475507996" y1="142.92168965132927" y2="145.44649492493687" /><path d="M 25.769776987707644 143.4266507060508 a86.0,86.0 0 0,1 -11.730757126820373,-40.83630448921669" fill="none" id="id33" stroke="none" /><text fill="#e1ed5e" style="font-size:6.75px; font-family:Arial;" text-anchor="middle"><textPath startOffset="21.46611528233685" xlink:href="#id33">September</textPath></text><line stroke="#e1ed5e" stroke-width="0.3" x1="15.007084014347285" x2="10.007500721073583" y1="101.09737516637583" y2="101.16192664675087" /><path d="M 14.007167355692545 101.11028546245083 a86.0,86.0 0 0,1 10.666146001902534,-42.60595125391555" fill="none" id="id34" stroke="none" /><text fill="#e1ed5e" style="font-size:6.75px; font-family:Arial;" text-anchor="middle"><textPath startOffset="22.20632615414155" xlink:href="#id34">October</textPath></text><path d="M 79.00019446554 99.90962569577889 l -38.691443473720255 -0.16651165066792079 a59.69180177001193,59.69180177001193 0 0,0 0.013265772094827615,-1.0274486681381454 l 38.682844694507715 0.8324965768665381" fill="#99ff23" stroke="none" /><line stroke="#e1ed5e" stroke-width="0.3" x1="26.266209847984243" x2="21.928928074336255" y1="57.711370442889674" y2="55.22380399835377" /><path d="M 25.398753493254645 57.213857153982495 a86.0,86.0 0 0,1 29.58750427330803,-30.492523968695096" fill="none" id="id35" stroke="none" /><text fill="#e1ed5e" style="font-size:6.75px; font-family:Arial;" text-anchor="middle"><textPath startOffset="21.46611528233685" xlink:href="#id35">November</textPath></text><line stroke="#e1ed5e" stroke-width="0.3" x1="56.762969772571076" x2="54.21961505331055" y1="26.818313649435495" y2="22.513508569990535" /><path d="M 56.25429882871897 25.957352633546506 a86.0,86.0 0 0,1 42.265352541879196,-11.944610805530505" fill="none" id="id36" stroke="none" /><text fill="#e1ed5e" style="font-size:6.75px; font-family:Arial;" text-anchor="middle"><textPath startOffset="22.20632615414155" xlink:href="#id36">December</textPath></text><path d="M 97.83486435360386 79.11191278185805 l -3.852023961687212 -37.16229632633996 a58.361401965773624,58.361401965773624 0 0,0 1.0001334340604007,-0.09497472064338025 l 3.2117654005365748 37.223096591498525" fill="#aeff20" stroke="none" /></svg>