<?xml version="1.0" encoding="utf-8" ?>
<svg baseProfile="full" height="200mm" version="1.1" viewBox="0,0,200,200" width="200mm" xmlns="http://www.w3.org/2000/svg" xmlns:ev="http://www.w3.org/2001/xml-events" xmlns:xlink="http://www.w3.org/1999/xlink"><defs /><rect fill="#1a1a1a" height="200" width="200" x="0" y="0" /><text alignment-baseline="middle" fill="#e1ed5e" style="dominant-baseline: central; font-size:9.0px; font-family:Arial;" text-anchor="middle" x="100.0" y="100.0">2024</text><line stroke="#e1ed5e" stroke-width="0.3" x1="100.0" x2="100.0" y1="15.0" y2="10.0" /><path d="M 100.0 14.0 a86.0,86.0 0 0,1 42.35913384403234,11.155469271406648" fill="none" id="id61" stroke="none" /><text fill="#e1ed5e" style="font-size:6.75px; font-family:Arial;" text-anchor="middle"><textPath startOffset="22.145653131862478" xlink:href="#id61">January</textPath></text><line stroke="#e1ed5e" stroke-width="0.3" x1="143.13028292997686" x2="145.6673583964461" y1="26.7553504044142" y2="22.446841604673864" /><path d="M 143.63769802327073 25.89364864446614 a86.0,86.0 0 0,1 29.32050498858742,28.57503671076993" fill="none" id="id62" stroke="none" /><text fill="#e1ed5e" style="font-size:6.75px; font-family:Arial;" text-anchor="middle"><textPath startOffset="20.669276256404974" xlink:href="#id62">February</textPath></text><line stroke="#e1ed5e" stroke-width="0.3" x1="172.87174338648825" x2="177.1583165268699" y1="56.24261187166439" y2="53.66864786411523" /><path d="M 173.72905801456457 55.72781907015455 a86.0,86.0 0 0,1 12.242430191666344,42.057860355516425" fill="none" id="id63" stroke="none" /><text fill="#e1ed5e" style="font-size:6.75px; font-family:Arial;" text-anchor="middle"><textPath startOffset="22.145653131862474" xlink:href="#id63">March</textPath></text><line stroke="#e1ed5e" stroke-width="0.3" x1="184.99686870605535" x2="189.99668451229388" y1="99.2704041080226" y2="99.22748670261217" /><path d="M 185.99683186730306 99.26182062694052 a86.0,86.0 0 0,1 -10.086455211305974,41.156179273409016" fill="none" id="id64" stroke="none" /><text fill="#e1ed5e" style="font-size:6.75px; font-family:Arial;" text-anchor="middle"><textPath startOffset="21.40746469413373" xlink:href="#id64">April</textPath></text><line stroke="#e1ed5e" stroke-width="0.3" x1="174.33088141563837" x2="178.70328620479359" y1="141.23008692659167" y2="143.65538615756765" /><path d="M 175.20536237346943 141.71514677278685 a86.0,86.0 0 0,1 -30.301960400862466,31.631185727798858" fill="none" id="id65" stroke="none" /><text fill="#e1ed5e" style="font-size:6.75px; font-family:Arial;" text-anchor="middle"><textPath startOffset="22.145653131862474" xlink:href="#id65">May</textPath></text><line stroke="#e1ed5e" stroke-width="0.3" x1="143.1302829299769" x2="145.66735839644613" y1="173.24464959558577" y2="177.55315839532614" /><path d="M 143.63769802327073 174.10635135553383 a86.0,86.0 0 0,1 -40.68552437913181,11.842963189579606" fill="none" id="id66" stroke="none" /><text fill="#e1ed5e" style="font-size:6.75px; font-family:Arial;" text-anchor="middle"><textPath startOffset="21.407464694133747" xlink:href="#id66">June</textPath></text><line stroke="#e1ed5e" stroke-width="0.3" x1="101.45913802915013" x2="101.54496967792366" y1="184.9874750549273" y2="189.98673829345242" /><path d="M 101.47630435890484 185.9873277026323 a86.0,86.0 0 0,1 -42.54439059252881,-10.42667462771756" fill="none" id="id67" stroke="none" /><text fill="#e1ed5e" style="font-size:6.75px; font-family:Arial;" text-anchor="middle"><textPath startOffset="22.145653131862474" xlink:href="#id67">July</textPath></text><line stroke="#e1ed5e" stroke-width="0.3" x1="58.13341422392154" x2="55.67067388415222" y1="173.97424548756322" y2="178.32567169271397" /><path d="M 57.64086615596768 174.84453072859336 a86.0,86.0 0 0,1 -31.369924170532247,-30.572349798747897" fill="none" id="id68" stroke="none" /><text fill="#e1ed5e" style="font-size:6.75px; font-family:Arial;" text-anchor="middle"><textPath startOffset="22.145653131862474" xlink:href="#id68">August</textPath></text><line stroke="#e1ed5e" stroke-width="0.3" x1="26.387840678322732" x2="22.057713659400548" y1="142.50000000000003" y2="145.00000000000006" /><path d="M 25.521815274538298 143.00000000000003 a86.0,86.0 0 0,1 -11.493303480769221,-40.785679425670985" fill="none" id="id69" stroke="none" /><text fill="#e1ed5e" style="font-size:6.75px; font-family:Arial;" text-anchor="middle"><textPath startOffset="21.40746469413373" xlink:href="#id69">September</textPath></text><path d="M 80.83023694016515 108.57439118712176 l -23.399690364172542 10.466383867848796 a46.63378045486687,46.63378045486687 0 0,0 -0.32058751672105346,-0.7335669768565797 l 23.575911762910565 -10.063154821216367" fill="#fd4300" stroke="none" /><path d="M 80.68587082218212 108.24405325689762 l -44.928834612062104 19.177447862240744 a69.85053414351773,69.85053414351773 0 0,0 -0.46126018242989064,-1.1068565219583093 l 45.25142063902848 -18.403358830841153" fill="#64f300" stroke="none" /><path d="M 80.5471966667186 107.91128576633889 l -35.72319394265682 14.528311982838092 a59.564471142949046,59.564471142949046 0 0,0 -0.3770752246993186,-0.9504758900101985 l 35.96732784232226 -13.912935075614328" fill="#f7f700" stroke="none" /><path d="M 80.16572619554312 106.89939002012753 l -50.52306623052495 17.574545071511427 a74.49247475864803,74.49247475864803 0 0,0 -0.4097603246560141,-1.2113835902073373 l 50.817311976753324 -16.70465980682993" fill="#23f100" stroke="none" /><path d="M 79.73907114497094 105.5222062557868 l -54.23932918629427 14.783170361307915 a77.21785264940885,77.21785264940885 0 0,0 -0.33759100680408954,-1.28188804019296 l 54.4851096739031 -13.849901816742152" fill="#00f002" stroke="none" /><path d="M 79.48165901384964 104.47187691870673 l -47.941445539357716 10.448614919773435 a70.06684984941374,70.06684984941374 0 0,0 -0.24604237634386378,-1.1774018391482628 l 48.11374562652594 -9.624096629339762" fill="#61f300" stroke="none" /><path d="M 79.407916724674 104.11899336999214 l -60.72173737002699 12.146048085442462 a82.92459828960067,82.92459828960067 0 0,0 -0.2672292870128565,-1.3982565499995423 l 60.92129294932201 -11.101888970409606" fill="#00ed50" stroke="none" /><path d="M 79.22317932658666 103.0534771498775 l -51.160149680028205 7.518780206452756 a72.70969900391836,72.70969900391836 0 0,0 -0.17088677835539867,-1.2364516010262778 l 51.281680974938816 -6.639440297226392" fill="#3cf200" stroke="none" /><path d="M 79.17382384314188 102.69636545807758 l -62.47852847057439 8.089096374232748 a84.0,84.0 0 0,0 -0.1728716549613547,-1.431625292306403 l 62.6081822117954 -7.015377405002945" fill="#00ed5e" stroke="none" /><path d="M 79.03789590574601 101.26102812881392 l -23.879242311006674 1.4365159200405422 a44.92241190466173,44.92241190466173 0 0,0 -0.03969945536798379,-0.7701588283441505 l 23.90038335583123 -1.0263852983196609" fill="#fe2b00" stroke="none" /><line stroke="#e1ed5e" stroke-width="0.3" x1="15.003131293944662" x2="10.003315487706104" y1="100.72959589197737" y2="100.7725132973878" /><path d="M 14.003168132696942 100.73817937305945 a86.0,86.0 0 0,1 10.791469493833604,-42.45332614584628" fill="none" id="id70" stroke="none" /><text fill="#e1ed5e" style="font-size:6.75px; font-family:Arial;" text-anchor="middle"><textPath startOffset="22.145653131862435" xlink:href="#id70">October</textPath></text><path d="M 79.03789590574601 98.7389718711861 l -20.921177765831285 -1.2585661025250394 a41.958999683762066,41.958999683762066 0 0,0 0.049423783126315055,-0.7186109596272203 l 20.896490021539908 1.6175204863065846" fill="#ff0000" stroke="none" /><line stroke="#e1ed5e" stroke-width="0.3" x1="26.387840678322718" x2="22.05771365940052" y1="57.49999999999999" y2="54.99999999999999" /><path d="M 25.521815274538284 56.99999999999999 a86.0,86.0 0 0,1 29.574782752854787,-30.34633250058573" fill="none" id="id71" stroke="none" /><text fill="#e1ed5e" style="font-size:6.75px; font-family:Arial;" text-anchor="middle"><textPath startOffset="21.40746469413373" xlink:href="#id71">November</textPath></text><line stroke="#e1ed5e" stroke-width="0.3" x1="56.869717070023135" x2="54.33264160355391" y1="26.7553504044142" y2="22.446841604673864" /><path d="M 56.362301976729285 25.89364864446614 a86.0,86.0 0 0,1 42.16139366436587,-11.88097634709845" fill="none" id="id72" stroke="none" /><text fill="#e1ed5e" style="font-size:6.75px; font-family:Arial;" text-anchor="middle"><textPath startOffset="22.145653131862474" xlink:href="#id72">December</textPath></text></svg>