<?xml version="1.0" encoding="utf-8" ?>
<svg baseProfile="full" height="200mm" version="1.1" viewBox="0,0,200,200" width="200mm" xmlns="http://www.w3.org/2000/svg" xmlns:ev="http://www.w3.org/2001/xml-events" xmlns:xlink="http://www.w3.org/1999/xlink"><defs /><rect fill="#1a1a1a" height="200" width="200" x="0" y="0" /><text alignment-baseline="middle" fill="#e1ed5e" style="dominant-baseline: central; font-size:9.0px; font-family:Arial;" text-anchor="middle" x="100.0" y="100.0">2021</text><line stroke="#e1ed5e" stroke-width="0.3" x1="100.0" x2="100.0" y1="15.0" y2="10.0" /><path d="M 100.0 14.0 a86.0,86.0 0 0,1 42.46469731375804,11.215312516191453" fill="none" id="id25" stroke="none" /><text fill="#e1ed5e" style="font-size:6.75px; font-family:Arial;" text-anchor="middle"><textPath startOffset="22.20632615414155" xlink:href="#id25">January</textPath></text><path d="M 109.08828744355905 81.06846463323043 l 13.910588607890325 -28.97672436510522 a53.142729043272766,53.142729043272766 0 0,0 0.8212544059057733,0.4029859703092374 l -14.407314280806531 28.732983234661152" fill="#ceff1d" stroke="none" /><path d="M 110.36928655335952 81.73862282372117 l 13.967717809471523 -24.59858370178295 a49.28758492587605,49.28758492587605 0 0,0 0.7341579816050788,0.4252716895644573 l -14.38907252354193 24.354507854828444" fill="#fff717" stroke="none" /><line stroke="#e1ed5e" stroke-width="0.3" x1="143.23703022742887" x2="145.7803849466894" y1="26.81831364943548" y2="22.513508569990506" /><path d="M 143.74570117128098 25.957352633546492 a86.0,86.0 0 0,1 28.547481713284135,27.462654790039103" fill="none" id="id26" stroke="none" /><text fill="#e1ed5e" style="font-size:6.75px; font-family:Arial;" text-anchor="middle"><textPath startOffset="19.985693538727396" xlink:href="#id26">February</textPath></text><path d="M 112.19680574252982 82.90503203632743 l 21.34414947399646 -29.915828715504873 a57.749551351053654,57.749551351053654 0 0,0 0.8042441319563348,0.584317564765029 l -21.855938922306585 29.54399191592317" fill="#8dff24" stroke="none" /><path d="M 112.77801427241765 83.33499621200491 l 38.33404281725294 -49.995011363985284 a84.0,84.0 0 0,0 1.1398697793622787,0.8896864431071037 l -39.188945151774654 49.32774653165496" fill="#4dd2ff" stroke="none" /><line stroke="#e1ed5e" stroke-width="0.3" x1="172.23445277983987" x2="176.4835382374775" y1="55.19839476539836" y2="52.563006222186495" /><path d="M 173.08426987136738 54.67131705675599 a86.0,86.0 0 0,1 12.851231095245387,41.99856678651699" fill="none" id="id27" stroke="none" /><text fill="#e1ed5e" style="font-size:6.75px; font-family:Arial;" text-anchor="middle"><textPath startOffset="22.20632615414155" xlink:href="#id27">March</textPath></text><path d="M 119.61058180528143 92.48833698450437 l 27.17749246013328 -10.410102412755261 a50.10302954444183,50.10302954444183 0 0,0 0.301561573170712,0.8080350891161044 l -27.352658621805617 9.940744186609823" fill="#fbff18" stroke="none" /><path d="M 120.37134235888165 94.90015583598534 l 28.81851996922285 -7.214544740911671 a50.707856688679385,50.707856688679385 0 0,0 0.20468395315595375,0.8485471291095381 l -28.938436722639626 6.717412380142727" fill="#f2ff19" stroke="none" /><line stroke="#e1ed5e" stroke-width="0.3" x1="184.98032266829074" x2="189.97916517819016" y1="98.17113171792111" y2="98.06355123074" /><path d="M 185.9800911702706 98.14961562048488 a86.0,86.0 0 0,1 -9.607161424134198,41.387399972396054" fill="none" id="id28" stroke="none" /><text fill="#e1ed5e" style="font-size:6.75px; font-family:Arial;" text-anchor="middle"><textPath startOffset="21.466115282336823" xlink:href="#id28">April</textPath></text><path d="M 120.89721153311464 102.0752229133903 l 35.52430392495644 3.5277840476701523 a56.69903961788989,56.69903961788989 0 0,0 -0.10480601071748401,0.9703734944890264 l -35.458315612737906 -4.13875386404397" fill="#9bff22" stroke="none" /><path d="M 120.23288151984713 105.62410040840565 l 26.54951595721449 7.379924772033695 a48.556126128381386,48.556126128381386 0 0,0 -0.23077423389998653,0.8033553829410837 l -26.418549086428403 -7.83583763047936" fill="#ffeb16" stroke="none" /><path d="M 119.26925614724726 108.34839909993367 l 25.629193264001472 11.103839833889067 a48.931179825066465,48.931179825066465 0 0,0 -0.34149050657051266,0.7699709414556501 l -25.434261672699687 -11.543359111837404" fill="#fff116" stroke="none" /><line stroke="#e1ed5e" stroke-width="0.3" x1="174.80103733775053" x2="179.2010983576182" y1="140.37084112569926" y2="142.7455964860345" /><path d="M 175.68104954172406 140.8457921977663 a86.0,86.0 0 0,1 -30.038265399797805,32.042727171017184" fill="none" id="id29" stroke="none" /><text fill="#e1ed5e" style="font-size:6.75px; font-family:Arial;" text-anchor="middle"><textPath startOffset="22.206326154141568" xlink:href="#id29">May</textPath></text><path d="M 118.48025628344425 109.97397251340804 l 40.011050002617765 21.594349495911228 a66.4664717397726,66.4664717397726 0 0,0 -0.5520628881876622,1.0021544995662448 l -39.633410704978594 -22.279874513875278" fill="#32ff46" stroke="none" /><path d="M 117.94076556474637 110.91462005526583 l 39.077631836661304 23.773651275775283 a66.74109536230868,66.74109536230868 0 0,0 -0.6055494597053493,0.9763385401905408 l -38.662617737287995 -24.4427861473311" fill="#32ff4a" stroke="none" /><path d="M 117.55443506779139 111.5257021239791 l 23.64293351362577 15.523222932709166 a49.28354212874187,49.28354212874187 0 0,0 -0.4717066153446199,0.7051373879461857 l -23.37222379287043 -15.92789723486116" fill="#fff717" stroke="none" /><path d="M 116.93607887273984 112.41649034213515 l 29.160834766596434 21.378928733665518 a57.15816474994117,57.15816474994117 0 0,0 -0.5885623401695486,0.7884754361401254 l -28.788511159731794 -21.877717049314956" fill="#95ff23" stroke="none" /><line stroke="#e1ed5e" stroke-width="0.3" x1="143.8653032363475" x2="146.44561519142675" y1="172.8068346515853" y2="177.08958963109032" /><path d="M 144.38136562736335 173.6633856474863 a86.0,86.0 0 0,1 -40.68145358897372,12.25698825130547" fill="none" id="id30" stroke="none" /><text fill="#e1ed5e" style="font-size:6.75px; font-family:Arial;" text-anchor="middle"><textPath startOffset="21.466115282336833" xlink:href="#id30">June</textPath></text><path d="M 104.13013068566511 120.58985236759428 l 2.6864408194189493 13.392656086669959 a34.65943634752394,34.65943634752394 0 0,0 -0.5859629697172191,0.11230119774992695 l -2.455510235130026 -13.436914482768353" fill="#ff0000" stroke="none" /><line stroke="#e1ed5e" stroke-width="0.3" x1="102.19456741930631" x2="102.32365962044197" y1="184.97166512339345" y2="189.96999836594603" /><path d="M 102.22038585953345 185.97133177190398 a86.0,86.0 0 0,1 -42.740103519485714,-10.115201625700543" fill="none" id="id31" stroke="none" /><text fill="#e1ed5e" style="font-size:6.75px; font-family:Arial;" text-anchor="middle"><textPath startOffset="22.20632615414155" xlink:href="#id31">July</textPath></text><line stroke="#e1ed5e" stroke-width="0.3" x1="58.666819895761336" x2="56.23545636021788" y1="174.27360380694188" y2="178.64263932499728" /><path d="M 58.180547188652646 175.14741091055294 a86.0,86.0 0 0,1 -31.652253787137756,-30.449443065178592" fill="none" id="id32" stroke="none" /><text fill="#e1ed5e" style="font-size:6.75px; font-family:Arial;" text-anchor="middle"><textPath startOffset="22.20632615414155" xlink:href="#id32">August</textPath></text><path d="M 84.67929136418377 114.36230785411682 l -16.7376142884485 15.69057769248248 a43.94214376192217,43.94214376192217 0 0,0 -0.5125612359452812,-0.5562839895450453 l 17.00522193238951 -15.40014244813609" fill="#ffa20e" stroke="none" /><line stroke="#e1ed5e" stroke-width="0.3" x1="26.63291911575756" x2="22.317208475507996" y1="142.92168965132927" y2="145.44649492493687" /><path d="M 25.769776987707644 143.4266507060508 a86.0,86.0 0 0,1 -11.730757126820373,-40.83630448921669" fill="none" id="id33" stroke="none" /><text fill="#e1ed5e" style="font-size:6.75px; font-family:Arial;" text-anchor="middle"><textPath startOffset="21.46611528233685" xlink:href="#id33">September</textPath></text><line stroke="#e1ed5e" stroke-width="0.3" x1="15.007084014347285" x2="10.007500721073583" y1="101.09737516637583" y2="101.16192664675087" /><path d="M 14.007167355692545 101.11028546245083 a86.0,86.0 0 0,1 10.666146001902534,-42.60595125391555" fill="none" id="id34" stroke="none" /><text fill="#e1ed5e" style="font-size:6.75px; font-family:Arial;" text-anchor="middle"><textPath startOffset="22.20632615414155" xlink:href="#id34">October</textPath></text><path d="M 79.00019446554 99.90962569577889 l -28.091888978362135 -0.12089563955772693 a49.092149119073966,49.092149119073966 0 0,0 0.010910129072131665,-0.8450015200206562 l 28.08564584217229 0.604433417638855" fill="#fff417" stroke="none" /><line stroke="#e1ed5e" stroke-width="0.3" x1="26.266209847984243" x2="21.928928074336255" y1="57.711370442889674" y2="55.22380399835377" /><path d="M 25.398753493254645 57.213857153982495 a86.0,86.0 0 0,1 29.58750427330803,-30.492523968695096" fill="none" id="id35" stroke="none" /><text fill="#e1ed5e" style="font-size:6.75px; font-family:Arial;" text-anchor="middle"><textPath startOffset="21.46611528233685" xlink:href="#id35">November</textPath></text><line stroke="#e1ed5e" stroke-width="0.3" x1="56.762969772571076" x2="54.21961505331055" y1="26.818313649435495" y2="22.513508569990535" /><path d="M 56.25429882871897 25.957352633546506 a86.0,86.0 0 0,1 42.265352541879196,-11.944610805530505" fill="none" id="id36" stroke="none" /><text fill="#e1ed5e" style="font-size:6.75px; font-family:Arial;" text-anchor="middle"><textPath startOffset="22.20632615414155" xlink:href="#id36">December</textPath></text></svg>