<?xml version="1.0" encoding="utf-8" ?>
<svg baseProfile="full" height="200mm" version="1.1" viewBox="0,0,200,200" width="200mm" xmlns="http://www.w3.org/2000/svg" xmlns:ev="http://www.w3.org/2001/xml-events" xmlns:xlink="http://www.w3.org/1999/xlink"><defs /><rect fill="#1a1a1a" height="200" width="200" x="0" y="0" /><text alignment-baseline="middle" fill="#e1ed5e" style="dominant-baseline: central; font-size:9.0px; font-family:Arial;" text-anchor="middle" x="100.0" y="100.0">2022</text><line stroke="#e1ed5e" stroke-width="0.3" x1="100.0" x2="100.0" y1="15.0" y2="10.0" /><path d="M 100.0 14.0 a86.0,86.0 0 0,1 42.46469731375804,11.215312516191453" fill="none" id="id37" stroke="none" /><text fill="#e1ed5e" style="font-size:6.75px; font-family:Arial;" text-anchor="middle"><textPath startOffset="22.20632615414155" xlink:href="#id37">January</textPath></text><line stroke="#e1ed5e" stroke-width="0.3" x1="143.23703022742887" x2="145.7803849466894" y1="26.81831364943548" y2="22.513508569990506" /><path d="M 143.74570117128098 25.957352633546492 a86.0,86.0 0 0,1 28.547481713284135,27.462654790039103" fill="none" id="id38" stroke="none" /><text fill="#e1ed5e" style="font-size:6.75px; font-family:Arial;" text-anchor="middle"><textPath startOffset="19.985693538727396" xlink:href="#id38">February</textPath></text><path d="M 112.19680574252982 82.90503203632743 l 7.507595566616961 -10.52259980234029 a33.92629482071713,33.92629482071713 0 0,0 0.472471610432425,0.343270718254336 l -7.687612493403175 10.39180984926928" fill="#ff0000" stroke="none" /><line stroke="#e1ed5e" stroke-width="0.3" x1="172.23445277983987" x2="176.4835382374775" y1="55.19839476539836" y2="52.563006222186495" /><path d="M 173.08426987136738 54.67131705675599 a86.0,86.0 0 0,1 12.851231095245387,41.99856678651699" fill="none" id="id39" stroke="none" /><text fill="#e1ed5e" style="font-size:6.75px; font-family:Arial;" text-anchor="middle"><textPath startOffset="22.20632615414155" xlink:href="#id39">March</textPath></text><path d="M 120.08093135843002 93.85539295169968 l 12.840595549912424 -3.929121240048609 a34.42828685258964,34.42828685258964 0 0,0 0.16852499338061558,0.5681824994175416 l -12.906326440404742 3.707509353884537" fill="#fe0700" stroke="none" /><line stroke="#e1ed5e" stroke-width="0.3" x1="184.98032266829074" x2="189.97916517819016" y1="98.17113171792111" y2="98.06355123074" /><path d="M 185.9800911702706 98.14961562048488 a86.0,86.0 0 0,1 -9.607161424134198,41.387399972396054" fill="none" id="id40" stroke="none" /><text fill="#e1ed5e" style="font-size:6.75px; font-family:Arial;" text-anchor="middle"><textPath startOffset="21.466115282336823" xlink:href="#id40">April</textPath></text><path d="M 120.95626037817324 101.35467743843564 l 41.05925530589519 2.6541971610448987 a62.144953625498005,62.144953625498005 0 0,0 -0.07819445411575249,1.066901200626403 l -41.007484293115105 -3.360571498168072" fill="#4bc600" stroke="none" /><path d="M 118.81262510543309 109.33194174019688 l 35.077324479609544 17.39999317538956 a60.15582274900399,60.15582274900399 0 0,0 -0.46813069398779283,0.9236662708083612 l -34.772615115835485 -18.001213657900617" fill="#63ca00" stroke="none" /><line stroke="#e1ed5e" stroke-width="0.3" x1="174.80103733775053" x2="179.2010983576182" y1="140.37084112569926" y2="142.7455964860345" /><path d="M 175.68104954172406 140.8457921977663 a86.0,86.0 0 0,1 -30.038265399797805,32.042727171017184" fill="none" id="id41" stroke="none" /><text fill="#e1ed5e" style="font-size:6.75px; font-family:Arial;" text-anchor="middle"><textPath startOffset="22.206326154141568" xlink:href="#id41">May</textPath></text><path d="M 116.0416608686014 113.55231037782055 l 31.6359447408673 26.72666787657838 a62.41434262948207,62.41434262948207 0 0,0 -0.7004003500406336,0.8147238407390444 l -31.171201881255886 -27.267268816478953" fill="#48c500" stroke="none" /><path d="M 113.48314897796784 116.09983520530334 l 40.449446933903516 48.299505615910014 a84.0,84.0 0 0,0 -1.1165194858212355,0.9188195245712865 l -39.612057319537584 -48.98862025933848" fill="#009986" stroke="none" /><path d="M 111.45004920935366 117.60387380957326 l 17.654059936334143 27.142227746234468 a53.37848605577689,53.37848605577689 0 0,0 -0.7745426704942564,0.49434977852752965 l -17.184235463792955 -27.44209195358581" fill="#bed700" stroke="none" /><line stroke="#e1ed5e" stroke-width="0.3" x1="143.8653032363475" x2="146.44561519142675" y1="172.8068346515853" y2="177.08958963109032" /><path d="M 144.38136562736335 173.6633856474863 a86.0,86.0 0 0,1 -40.68145358897372,12.25698825130547" fill="none" id="id42" stroke="none" /><text fill="#e1ed5e" style="font-size:6.75px; font-family:Arial;" text-anchor="middle"><textPath startOffset="21.466115282336833" xlink:href="#id42">June</textPath></text><path d="M 104.48393922423573 120.51570834832081 l 8.199713561450992 37.516773433781886 a59.40239043824701,59.40239043824701 0 0,0 -1.000812997550365,0.2097300943591863 l -7.552709102471249 -37.65235950886761" fill="#6dcb00" stroke="none" /><line stroke="#e1ed5e" stroke-width="0.3" x1="102.19456741930631" x2="102.32365962044197" y1="184.97166512339345" y2="189.96999836594603" /><path d="M 102.22038585953345 185.97133177190398 a86.0,86.0 0 0,1 -42.740103519485714,-10.115201625700543" fill="none" id="id43" stroke="none" /><text fill="#e1ed5e" style="font-size:6.75px; font-family:Arial;" text-anchor="middle"><textPath startOffset="22.20632615414155" xlink:href="#id43">July</textPath></text><path d="M 91.40352486487194 119.15986991738527 l -13.613939706029486 30.342821881118113 a54.256972111553786,54.256972111553786 0 0,0 -0.8488167519714283,-0.3896501389974214 l 14.134224453768333 -30.103984671786616" fill="#b2d600" stroke="none" /><line stroke="#e1ed5e" stroke-width="0.3" x1="58.666819895761336" x2="56.23545636021788" y1="174.27360380694188" y2="178.64263932499728" /><path d="M 58.180547188652646 175.14741091055294 a86.0,86.0 0 0,1 -31.652253787137756,-30.449443065178592" fill="none" id="id44" stroke="none" /><text fill="#e1ed5e" style="font-size:6.75px; font-family:Arial;" text-anchor="middle"><textPath startOffset="22.20632615414155" xlink:href="#id44">August</textPath></text><line stroke="#e1ed5e" stroke-width="0.3" x1="26.63291911575756" x2="22.317208475507996" y1="142.92168965132927" y2="145.44649492493687" /><path d="M 25.769776987707644 143.4266507060508 a86.0,86.0 0 0,1 -11.730757126820373,-40.83630448921669" fill="none" id="id45" stroke="none" /><text fill="#e1ed5e" style="font-size:6.75px; font-family:Arial;" text-anchor="middle"><textPath startOffset="21.46611528233685" xlink:href="#id45">September</textPath></text><line stroke="#e1ed5e" stroke-width="0.3" x1="15.007084014347285" x2="10.007500721073583" y1="101.09737516637583" y2="101.16192664675087" /><path d="M 14.007167355692545 101.11028546245083 a86.0,86.0 0 0,1 10.666146001902534,-42.60595125391555" fill="none" id="id46" stroke="none" /><text fill="#e1ed5e" style="font-size:6.75px; font-family:Arial;" text-anchor="middle"><textPath startOffset="22.20632615414155" xlink:href="#id46">October</textPath></text><path d="M 79.03285615573316 98.82574320788736 l -17.59235256415378 -0.9852529100355497 a38.6199203187251,38.6199203187251 0 0,0 0.042885415109015446,-0.6634183902024293 l 17.572786558040352 1.287930364490991" fill="#f54200" stroke="none" /><path d="M 79.21141760316559 97.0276538004421 l -14.783912182609333 -2.11379998653819 a35.93426294820717,35.93426294820717 0 0,0 0.09282009469250875,-0.611568451105962 l 14.745336194477522 2.367967550036244" fill="#fb1d00" stroke="none" /><path d="M 79.54389044137918 95.25157060432595 l -34.10709900511083 -7.91720200035693 a56.01394422310757,56.01394422310757 0 0,0 0.22610215229236857,-0.9373393920479436 l 33.96576405255765 8.50312662406427" fill="#9ad200" stroke="none" /><line stroke="#e1ed5e" stroke-width="0.3" x1="26.266209847984243" x2="21.928928074336255" y1="57.711370442889674" y2="55.22380399835377" /><path d="M 25.398753493254645 57.213857153982495 a86.0,86.0 0 0,1 29.58750427330803,-30.492523968695096" fill="none" id="id47" stroke="none" /><text fill="#e1ed5e" style="font-size:6.75px; font-family:Arial;" text-anchor="middle"><textPath startOffset="21.46611528233685" xlink:href="#id47">November</textPath></text><line stroke="#e1ed5e" stroke-width="0.3" x1="56.762969772571076" x2="54.21961505331055" y1="26.818313649435495" y2="22.513508569990535" /><path d="M 56.25429882871897 25.957352633546506 a86.0,86.0 0 0,1 42.265352541879196,-11.944610805530505" fill="none" id="id48" stroke="none" /><text fill="#e1ed5e" style="font-size:6.75px; font-family:Arial;" text-anchor="middle"><textPath startOffset="22.20632615414155" xlink:href="#id48">December</textPath></text></svg>