<?xml version="1.0" encoding="utf-8" ?>
<svg baseProfile="full" height="200mm" version="1.1" viewBox="0,0,200,200" width="200mm" xmlns="http://www.w3.org/2000/svg" xmlns:ev="http://www.w3.org/2001/xml-events" xmlns:xlink="http://www.w3.org/1999/xlink"><defs /><rect fill="#1a1a1a" height="200" width="200" x="0" y="0" /><text alignment-baseline="middle" fill="#e1ed5e" style="dominant-baseline: central; font-size:9.0px; font-family:Arial;" text-anchor="middle" x="100.0" y="100.0">2020</text><line stroke="#e1ed5e" stroke-width="0.3" x1="100.0" x2="100.0" y1="15.0" y2="10.0" /><path d="M 100.0 14.0 a86.0,86.0 0 0,1 42.35913384403234,11.155469271406648" fill="none" id="id13" stroke="none" /><text fill="#e1ed5e" style="font-size:6.75px; font-family:Arial;" text-anchor="middle"><textPath startOffset="22.145653131862478" xlink:href="#id13">January</textPath></text><line stroke="#e1ed5e" stroke-width="0.3" x1="143.13028292997686" x2="145.6673583964461" y1="26.7553504044142" y2="22.446841604673864" /><path d="M 143.63769802327073 25.89364864446614 a86.0,86.0 0 0,1 29.32050498858742,28.57503671076993" fill="none" id="id14" stroke="none" /><text fill="#e1ed5e" style="font-size:6.75px; font-family:Arial;" text-anchor="middle"><textPath startOffset="20.669276256404974" xlink:href="#id14">February</textPath></text><path d="M 110.96478420261332 82.08984904055464 l 6.162672246095102 -10.06626197119694 a32.802887751968015,32.802887751968015 0 0,0 0.47772855970649547,0.29813795390836223 l -6.33456493459131 9.958988220447033" fill="#fe2500" stroke="none" /><path d="M 111.8722381534696 82.67804972795209 l 7.925928332312782 -11.56416630608228 a35.01963916381899,35.01963916381899 0 0,0 0.49295129724516706,0.3441182900041841 l -8.12327472073171 11.426403200272969" fill="#fd3d00" stroke="none" /><line stroke="#e1ed5e" stroke-width="0.3" x1="172.87174338648825" x2="177.1583165268699" y1="56.24261187166439" y2="53.66864786411523" /><path d="M 173.72905801456457 55.72781907015455 a86.0,86.0 0 0,1 12.242430191666344,42.057860355516425" fill="none" id="id15" stroke="none" /><text fill="#e1ed5e" style="font-size:6.75px; font-family:Arial;" text-anchor="middle"><textPath startOffset="22.145653131862474" xlink:href="#id15">March</textPath></text><path d="M 120.99303781780057 99.45929381324524 l 32.79794626212113 -0.8447587533873692 a53.80882345291294,53.80882345291294 0 0,0 0.015857123073031207,0.9235979219846905 l -32.80761481679283 0.2816139154336123" fill="#e6f700" stroke="none" /><line stroke="#e1ed5e" stroke-width="0.3" x1="184.99686870605535" x2="189.99668451229388" y1="99.2704041080226" y2="99.22748670261217" /><path d="M 185.99683186730306 99.26182062694052 a86.0,86.0 0 0,1 -10.086455211305974,41.156179273409016" fill="none" id="id16" stroke="none" /><text fill="#e1ed5e" style="font-size:6.75px; font-family:Arial;" text-anchor="middle"><textPath startOffset="21.40746469413373" xlink:href="#id16">April</textPath></text><path d="M 120.99922638620191 99.81974689727618 l 53.93467045288291 -0.46296427852729594 a74.93665741204467,74.93665741204467 0 0,0 0.0,1.286434762502239 l -53.93467045288291 -0.4629642785272894" fill="#00f000" stroke="none" /><path d="M 120.99922638620191 100.18025310272382 l 16.62216542983409 0.14268129871132 a37.62277779222755,37.62277779222755 0 0,0 -0.011087196848347676,0.6457736326199413 l -16.617266801387075 -0.4280018473003323" fill="#fc5a00" stroke="none" /><path d="M 120.93736805541906 101.62068470465957 l 33.87272888844609 2.621963442075345 a54.97405561074141,54.97405561074141 0 0,0 -0.08090709069242635,0.9402630340846889 l -33.82272817505592 -3.203047523535691" fill="#d9f700" stroke="none" /><path d="M 120.7213421655516 103.40968896794604 l 12.319519722709131 2.027172282244717 a33.485190974114914,33.485190974114914 0 0,0 -0.09819959987848834,0.5663891965709648 l -12.282905305338408 -2.2383545117362695" fill="#fe2c00" stroke="none" /><path d="M 120.65975698304385 103.76489593502545 l 36.98765594724422 6.740383037234689 a58.5968011399953,58.5968011399953 0 0,0 -0.18883156159754666,0.9880465229012041 l -36.86649809336451 -7.374332125169207" fill="#b1f500" stroke="none" /><path d="M 120.592083275326 104.11899336999214 l 37.14930496354363 7.430901419673362 a58.88521024335579,58.88521024335579 0 0,0 -0.20677762866350657,0.9895058074990558 l -37.01626962405576 -8.067523678457826" fill="#aef500" stroke="none" /><path d="M 118.70294669586154 109.54985784667822 l 42.33784084779758 21.61800320594501 a68.53767800666841,68.53767800666841 0 0,0 -0.5440322807097481,1.0432536316059735 l -41.96050049811288 -22.341603080655485" fill="#45f200" stroke="none" /><line stroke="#e1ed5e" stroke-width="0.3" x1="174.33088141563837" x2="178.70328620479359" y1="141.23008692659167" y2="143.65538615756765" /><path d="M 175.20536237346943 141.71514677278685 a86.0,86.0 0 0,1 -30.301960400862466,31.631185727798858" fill="none" id="id17" stroke="none" /><text fill="#e1ed5e" style="font-size:6.75px; font-family:Arial;" text-anchor="middle"><textPath startOffset="22.145653131862474" xlink:href="#id17">May</textPath></text><line stroke="#e1ed5e" stroke-width="0.3" x1="143.1302829299769" x2="145.66735839644613" y1="173.24464959558577" y2="177.55315839532614" /><path d="M 143.63769802327073 174.10635135553383 a86.0,86.0 0 0,1 -40.68552437913181,11.842963189579606" fill="none" id="id18" stroke="none" /><text fill="#e1ed5e" style="font-size:6.75px; font-family:Arial;" text-anchor="middle"><textPath startOffset="21.407464694133747" xlink:href="#id18">June</textPath></text><path d="M 104.29559338865022 120.5559693870025 l 1.7380418826889783 8.317159586910812 a29.49681900361091,29.49681900361091 0 0,0 -0.4965347230206506,0.09932085087008098 l -1.595010674137369 -8.345769834443754" fill="#ff0000" stroke="none" /><path d="M 102.875027216393 120.80226474461374 l 1.3889198290548581 10.049531993401986 a31.145057495054026,31.145057495054026 0 0,0 -0.5302404187127975,0.06865023798538021 l -1.2162015884512853 -10.071893827587761" fill="#fe1200" stroke="none" /><path d="M 101.08105385017728 120.97215588758144 l 1.1265218674546906 21.854223275884713 a42.88323848314218,42.88323848314218 0 0,0 -0.7354970382685224,0.03158540747222742 l -0.7511990685853387 -21.870341251782772" fill="#fb9300" stroke="none" /><path d="M 100.72087961077811 120.9876233191556 l 0.9480366919371613 27.601053886985135 a48.6173305958689,48.6173305958689 0 0,0 -0.834335173912963,0.02148951448938835 l -0.4740882039534545 -27.613261118824568" fill="#f9d100" stroke="none" /><line stroke="#e1ed5e" stroke-width="0.3" x1="101.45913802915013" x2="101.54496967792366" y1="184.9874750549273" y2="189.98673829345242" /><path d="M 101.47630435890484 185.9873277026323 a86.0,86.0 0 0,1 -42.54439059252881,-10.42667462771756" fill="none" id="id19" stroke="none" /><text fill="#e1ed5e" style="font-size:6.75px; font-family:Arial;" text-anchor="middle"><textPath startOffset="22.145653131862474" xlink:href="#id19">July</textPath></text><path d="M 100.36049292484886 120.99690560180557 l 0.2647465118584306 15.420157053649383 a36.42242958404265,36.42242958404265 0 0,0 -0.625239436707281,0.005366928587704489 l -1.888702902517328e-15 -15.422429584042654" fill="#fd4d00" stroke="none" /><path d="M 98.91894614982273 120.97215588758144 l -2.447911542695549 47.48882996346835 a68.55187948146815,68.55187948146815 0 0,0 -1.1747038573020085,-0.07066726700828008 l 3.2627597521300036 -47.43981071863538" fill="#44f200" stroke="none" /><path d="M 97.48249496171623 120.84855314841334 l -1.1453492771770741 9.485135050614122 a30.55403641897594,30.55403641897594 0 0,0 -0.520178364311442,-0.06734750359377778 l 1.3080054633793101 -9.464075950819947" fill="#ff0c00" stroke="none" /><path d="M 97.12497278360702 120.80226474461374 l -3.8770333040153653 28.052281645875134 a49.31893170266045,49.31893170266045 0 0,0 -0.837658321742296,-0.12310692694758012 l 4.358016731365346 -27.98159364562867" fill="#f8d900" stroke="none" /><path d="M 96.76829788921471 120.74984581791261 l -2.46304046937306 15.814486679389873 a37.00514158907597,37.00514158907597 0 0,0 -0.6268362555210013,-0.10314566730680846 l 2.7341542279471245 -15.769875013587397" fill="#fd5300" stroke="none" /><path d="M 96.41257539226777 120.69131181640829 l -6.16221727615482 35.542031703344634 a57.0722738312973,57.0722738312973 0 0,0 -0.9638834859630516,-0.17565167979075533 l 6.771435495668928 -35.431011849622514" fill="#c2f600" stroke="none" /><path d="M 92.59220618246901 119.65005319985036 l -19.057557105160903 50.552434395428754 a75.02535614061787,75.02535614061787 0 0,0 -1.2012193214655822,-0.4646574386729574 l 19.922548689120013 -50.21783706861776" fill="#00f000" stroke="none" /><path d="M 92.25597844496254 119.51999308798841 l -23.232064665112382 58.55997926396522 a84.0,84.0 0 0,0 -1.3357821552382365,-0.5432509736828348 l 24.233901281541062 -58.152541033703095" fill="#00ed5e" stroke="none" /><path d="M 91.92203290615298 119.3841803445677 l -10.37200380208482 24.88903332959795 a47.96372457492287,47.96372457492287 0 0,0 -0.7572899396776402,-0.323242044005039 l 10.79772881693289 -24.707316635933505" fill="#f9ca00" stroke="none" /><path d="M 91.26138138417905 119.09545874513695 l -14.463984151558588 31.606415704692516 a55.758773730302565,55.758773730302565 0 0,0 -0.8669461392204606,-0.40577456783196025 l 15.004419004650538 -31.35346490529003" fill="#d0f600" stroke="none" /><path d="M 90.6110303473126 118.78422872680471 l -15.298930036937783 30.60810842081761 a55.21861425270818,55.21861425270818 0 0,0 -0.8442473281544284,-0.43107870125602366 l 15.822104586805793 -30.340971767888753" fill="#d6f700" stroke="none" /><line stroke="#e1ed5e" stroke-width="0.3" x1="58.13341422392154" x2="55.67067388415222" y1="173.97424548756322" y2="178.32567169271397" /><path d="M 57.64086615596768 174.84453072859336 a86.0,86.0 0 0,1 -31.369924170532247,-30.572349798747897" fill="none" id="id20" stroke="none" /><text fill="#e1ed5e" style="font-size:6.75px; font-family:Arial;" text-anchor="middle"><textPath startOffset="22.145653131862474" xlink:href="#id20">August</textPath></text><line stroke="#e1ed5e" stroke-width="0.3" x1="26.387840678322732" x2="22.057713659400548" y1="142.50000000000003" y2="145.00000000000006" /><path d="M 25.521815274538298 143.00000000000003 a86.0,86.0 0 0,1 -11.493303480769221,-40.785679425670985" fill="none" id="id21" stroke="none" /><text fill="#e1ed5e" style="font-size:6.75px; font-family:Arial;" text-anchor="middle"><textPath startOffset="21.40746469413373" xlink:href="#id21">September</textPath></text><path d="M 80.5471966667186 107.91128576633889 l -42.151008480715326 17.14244819715978 a66.50352784272492,66.50352784272492 0 0,0 -0.4210031957542423,-1.0612030729431647 l 42.439070351435696 -16.416344107003052" fill="#5af300" stroke="none" /><line stroke="#e1ed5e" stroke-width="0.3" x1="15.003131293944662" x2="10.003315487706104" y1="100.72959589197737" y2="100.7725132973878" /><path d="M 14.003168132696942 100.73817937305945 a86.0,86.0 0 0,1 10.791469493833604,-42.45332614584628" fill="none" id="id22" stroke="none" /><text fill="#e1ed5e" style="font-size:6.75px; font-family:Arial;" text-anchor="middle"><textPath startOffset="22.145653131862435" xlink:href="#id22">October</textPath></text><line stroke="#e1ed5e" stroke-width="0.3" x1="26.387840678322718" x2="22.05771365940052" y1="57.49999999999999" y2="54.99999999999999" /><path d="M 25.521815274538284 56.99999999999999 a86.0,86.0 0 0,1 29.574782752854787,-30.34633250058573" fill="none" id="id23" stroke="none" /><text fill="#e1ed5e" style="font-size:6.75px; font-family:Arial;" text-anchor="middle"><textPath startOffset="21.40746469413373" xlink:href="#id23">November</textPath></text><path d="M 84.58840730492382 85.73525988315684 l -15.189842645718306 -14.059491581693527 a41.69784102599577,41.69784102599577 0 0,0 0.4907322931127244,-0.5211406894832723 l 14.94625451886931 14.31817373112131" fill="#fb8700" stroke="none" /><path d="M 85.34317274990677 84.96080404539775 l -14.817224416837488 -15.203777577901011 a42.229813754651985,42.229813754651985 0 0,0 0.5235039255771379,-0.5015049185650124 l 14.55404800539505 15.455894626771594" fill="#fb8c00" stroke="none" /><line stroke="#e1ed5e" stroke-width="0.3" x1="56.869717070023135" x2="54.33264160355391" y1="26.7553504044142" y2="22.446841604673864" /><path d="M 56.362301976729285 25.89364864446614 a86.0,86.0 0 0,1 42.16139366436587,-11.88097634709845" fill="none" id="id24" stroke="none" /><text fill="#e1ed5e" style="font-size:6.75px; font-family:Arial;" text-anchor="middle"><textPath startOffset="22.145653131862474" xlink:href="#id24">December</textPath></text></svg>